<svg width="22" height="22" viewBox="0 0 22 22" fill="none" xmlns="http://www.w3.org/2000/svg">
<g clip-path="url(#clip0_929_21694)">
<path d="M11 6.41675C9.78444 6.41675 8.61866 6.89963 7.75911 7.75918C6.89957 8.61872 6.41669 9.78451 6.41669 11.0001C6.41669 12.2157 6.89957 13.3814 7.75911 14.241C8.61866 15.1005 9.78444 15.5834 11 15.5834C12.2156 15.5834 13.3814 15.1005 14.2409 14.241C15.1005 13.3814 15.5834 12.2157 15.5834 11.0001C15.5834 9.78451 15.1005 8.61872 14.2409 7.75918C13.3814 6.89963 12.2156 6.41675 11 6.41675Z" fill="#21BF73"/>
<path fill-rule="evenodd" clip-rule="evenodd" d="M11 0.916748C11.2431 0.916748 11.4763 1.01333 11.6482 1.18523C11.8201 1.35714 11.9167 1.5903 11.9167 1.83341V2.75008C11.9167 2.9932 11.8201 3.22635 11.6482 3.39826C11.4763 3.57017 11.2431 3.66675 11 3.66675C10.7569 3.66675 10.5237 3.57017 10.3518 3.39826C10.1799 3.22635 10.0834 2.9932 10.0834 2.75008V1.83341C10.0834 1.5903 10.1799 1.35714 10.3518 1.18523C10.5237 1.01333 10.7569 0.916748 11 0.916748ZM3.0186 3.01866C3.1905 2.84682 3.42362 2.75028 3.66669 2.75028C3.90975 2.75028 4.14287 2.84682 4.31477 3.01866L5.68977 4.39366C5.85675 4.56655 5.94914 4.7981 5.94705 5.03845C5.94497 5.2788 5.84856 5.50871 5.6786 5.67866C5.50865 5.84862 5.27874 5.94503 5.03839 5.94712C4.79804 5.9492 4.56649 5.85681 4.3936 5.68983L3.0186 4.31483C2.84676 4.14293 2.75022 3.90982 2.75022 3.66675C2.75022 3.42368 2.84676 3.19056 3.0186 3.01866ZM18.9814 3.01866C19.1533 3.19056 19.2498 3.42368 19.2498 3.66675C19.2498 3.90982 19.1533 4.14293 18.9814 4.31483L17.6064 5.68983C17.5219 5.77738 17.4207 5.84722 17.3089 5.89526C17.1971 5.9433 17.0768 5.96859 16.9551 5.96964C16.8333 5.9707 16.7126 5.94751 16.6 5.90142C16.4873 5.85533 16.385 5.78726 16.2989 5.70119C16.2128 5.61513 16.1448 5.51278 16.0987 5.40012C16.0526 5.28747 16.0294 5.16676 16.0305 5.04505C16.0315 4.92333 16.0568 4.80305 16.1048 4.69121C16.1529 4.57937 16.2227 4.47822 16.3103 4.39366L17.6853 3.01866C17.8572 2.84682 18.0903 2.75028 18.3334 2.75028C18.5764 2.75028 18.8095 2.84682 18.9814 3.01866ZM0.916687 11.0001C0.916687 10.757 1.01326 10.5238 1.18517 10.3519C1.35708 10.18 1.59024 10.0834 1.83335 10.0834H2.75002C2.99314 10.0834 3.22629 10.18 3.3982 10.3519C3.57011 10.5238 3.66669 10.757 3.66669 11.0001C3.66669 11.2432 3.57011 11.4764 3.3982 11.6483C3.22629 11.8202 2.99314 11.9167 2.75002 11.9167H1.83335C1.59024 11.9167 1.35708 11.8202 1.18517 11.6483C1.01326 11.4764 0.916687 11.2432 0.916687 11.0001ZM18.3334 11.0001C18.3334 10.757 18.4299 10.5238 18.6018 10.3519C18.7737 10.18 19.0069 10.0834 19.25 10.0834H20.1667C20.4098 10.0834 20.643 10.18 20.8149 10.3519C20.9868 10.5238 21.0834 10.757 21.0834 11.0001C21.0834 11.2432 20.9868 11.4764 20.8149 11.6483C20.643 11.8202 20.4098 11.9167 20.1667 11.9167H19.25C19.0069 11.9167 18.7737 11.8202 18.6018 11.6483C18.4299 11.4764 18.3334 11.2432 18.3334 11.0001ZM5.68977 16.3103C5.86162 16.4822 5.95816 16.7153 5.95816 16.9584C5.95816 17.2015 5.86162 17.4346 5.68977 17.6065L4.31477 18.9815C4.14188 19.1485 3.91033 19.2409 3.66999 19.2388C3.42964 19.2367 3.19973 19.1403 3.02977 18.9703C2.85981 18.8004 2.76341 18.5705 2.76132 18.3301C2.75923 18.0898 2.85163 17.8582 3.0186 17.6853L4.3936 16.3103C4.5655 16.1385 4.79862 16.0419 5.04169 16.0419C5.28475 16.0419 5.51787 16.1385 5.68977 16.3103ZM16.3103 16.3103C16.4822 16.1385 16.7153 16.0419 16.9584 16.0419C17.2014 16.0419 17.4345 16.1385 17.6064 16.3103L18.9814 17.6853C19.1484 17.8582 19.2408 18.0898 19.2387 18.3301C19.2366 18.5705 19.1402 18.8004 18.9703 18.9703C18.8003 19.1403 18.5704 19.2367 18.3301 19.2388C18.0897 19.2409 17.8582 19.1485 17.6853 18.9815L16.3103 17.6065C16.1384 17.4346 16.0419 17.2015 16.0419 16.9584C16.0419 16.7153 16.1384 16.4822 16.3103 16.3103ZM11 18.3334C11.2431 18.3334 11.4763 18.43 11.6482 18.6019C11.8201 18.7738 11.9167 19.007 11.9167 19.2501V20.1667C11.9167 20.4099 11.8201 20.643 11.6482 20.8149C11.4763 20.9868 11.2431 21.0834 11 21.0834C10.7569 21.0834 10.5237 20.9868 10.3518 20.8149C10.1799 20.643 10.0834 20.4099 10.0834 20.1667V19.2501C10.0834 19.007 10.1799 18.7738 10.3518 18.6019C10.5237 18.43 10.7569 18.3334 11 18.3334Z" fill="#21BF73"/>
</g>
<defs>
<clipPath id="clip0_929_21694">
<rect width="22" height="22" fill="white"/>
</clipPath>
</defs>
</svg>
